<svg xmlns="http://www.w3.org/2000/svg" version="1.1" xmlns:xlink="http://www.w3.org/1999/xlink" width="1000" height="1000"><style>
    #light-icon {
      display: inline;
    }
    #dark-icon {
      display: none;
    }

    @media (prefers-color-scheme: dark) {
      #light-icon {
        display: none;
      }
      #dark-icon {
        display: inline;
      }
    }
  </style><g id="light-icon"><svg xmlns="http://www.w3.org/2000/svg" version="1.1" xmlns:xlink="http://www.w3.org/1999/xlink" width="1000" height="1000"><g><g transform="matrix(2.635935177082125,0,0,2.635935177082125,158.03617557437033,0)"><svg xmlns="http://www.w3.org/2000/svg" version="1.1" xmlns:xlink="http://www.w3.org/1999/xlink" width="259.463" height="379.372"><svg id="scholarbrood-logo" xmlns="http://www.w3.org/2000/svg" width="259.463" height="379.372" viewBox="0 0 259.463 379.372">
  <path id="Path_114" data-name="Path 114" d="M297.5,524.653q-.058,47.974-.021,95.949H273.571c-.013-5.527-.036-11.054-.036-16.581q0-42.513.024-85.027Z" transform="translate(-165.412 -241.407)" fill="#403d4e"></path>
  <path id="Path_115" data-name="Path 115" d="M300.957,523.329" transform="translate(-168.25 -241.856)" fill="#403d4e"></path>
  <path id="Path_116" data-name="Path 116" d="M264.633,510.489q-10.037-1.689-20.045-3.561c-1.284-.241-1.719.107-1.9,1.308-.362,2.406-.766,4.809-1.242,7.194-4.113,20.6-9.123,40.949-17.746,60.2-3.643,8.135-7.485,16.219-14.211,22.435-3.351,2.376-4.824,2.033-6.892-1.6.775-.3.668-.991.746-1.619.464-3.746.9-7.5,1.426-11.233.912-6.526,1.881-13.043,2.819-19.565,1.111-7.724,2.2-15.452,3.322-23.175,1.2-8.293,2.433-16.581,3.637-24.873.512-3.521.988-7.049,1.48-10.573.2,1.919.985.11,1.467.231a64.508,64.508,0,0,1-1,7.4c-1.123,7.79-2.218,15.584-3.352,23.372-1.18,8.107-2.412,16.206-3.588,24.314-1.276,8.8-2.55,17.608-3.747,26.424a58.868,58.868,0,0,0-.9,8.786c.029,1.911.913,2.417,2.6,1.521a8.28,8.28,0,0,0,1.7-1.235,33.712,33.712,0,0,0,5.655-7.036c6.369-10.189,10.821-21.26,14.527-32.624a307.561,307.561,0,0,0,9.264-35.318c.826-4.144,1.619-8.3,2.425-12.445.3-1.532.295-2.736-1.842-2.849-1.711-.09-3.392-.73-5.1-.844-1.291-.085-1.665-.726-1.783-1.773-.3-2.673-.58-5.349-.868-8.023-1.053-9.071-2.092-18.143-3.168-27.211-.4-3.329-.436-3.323,2.8-2.924l5.4.923a2.751,2.751,0,0,0,.532.216c13.363,2.382,26.761,4.587,40.075,7.214,5.788,1.142,12.054.487,17.252,4.132.473,1.1,1.548,1.249,2.5,1.478a20.52,20.52,0,0,0,8.871.057c1.278-.254,2.69-.367,3.331-1.824,1.228-.769,2.081-2.022,3.669-2.346,17.71-3.6,35.25-7.948,52.841-12.07.405-.095.975,0,.878-.716a3.136,3.136,0,0,0,2.208.125c1.88-.5,3.8-.851,6.167-1.36-1.636,3.135-3.063,5.845-4.467,8.568-4.029,7.81-8.069,15.614-12.052,23.449a3.292,3.292,0,0,1-3.037,2.117c-2.028.131-4.021.734-6.047,1-.861.112-1.3.379-1.31,1.248-.335-.748-.822-.769-1.629-.659-2.916.4-5.709,1.621-8.726,1.334.731-4.784-.9-8.405-5.2-10.793a34.591,34.591,0,0,1-5.883-4.328c-1.033-.9-2.2-1.469-3.512-.82a3.72,3.72,0,0,0-2.018,3.473,8.716,8.716,0,0,0,2.383,5.926c1.538,1.9,1.488,2.24-.385,3.852a3.994,3.994,0,0,1-2.057.944c-2.912.464-5.852.83-8.717,1.5a15.21,15.21,0,0,1-9.874-1.006c-4.772-2.045-9.506-4.173-14.25-6.278-1.358-.6-3.126-1.14-3.924.1-1.377,2.144-2.558,1.087-3.963.4a13.907,13.907,0,0,0-2.318-.929c-2.026-.568-3.19.052-3.824,2.043a1.206,1.206,0,0,1-.745.941c-2.176.96-2.377,2.459-.489,4.032q9.023,7.518,18.116,14.953a11.264,11.264,0,0,0,4.3,2.491c3.916.959,7.826,2.006,11.9,2.108,3.848.1,7.7.217,11.543.326q-.019,13.306-.036,26.612.012,35.484.042,70.969h-27q.022-47.974.047-95.948" transform="translate(-158.07 -235.408)" fill="#93181e"></path>
  <path id="Path_117" data-name="Path 117" d="M382.643,616.07l-.041,4.994H332.078q-.023-35.484-.042-70.969,0-13.306.036-26.612l8.953-.021.8,2.193a5.464,5.464,0,0,0,.1,2.1c1.529,7.225,3.693,14.275,5.842,21.329,5.613,18.421,12.547,36.283,22.756,52.711C373.836,607.132,377.333,612.389,382.643,616.07Z" transform="translate(-171.467 -241.87)" fill="#100f16"></path>
  <path id="Path_118" data-name="Path 118" d="M217.746,224.839q9.1-1.911,18.2-3.826c3.675-.778,7.343-1.583,11.014-2.377a69.747,69.747,0,0,0,8.563-1.817c5.577-.787,11.023-2.219,16.528-3.362,6.132-1.272,12.252-2.607,18.366-3.963,1.783-.4,3.424.182,5.106.506,2.322.446,4.633.943,6.95,1.418,6.033,1.264,12.062,2.545,18.1,3.788,5.261,1.083,10.531,2.121,15.8,3.179.736.171,1.469.36,2.209.512q12.009,2.466,24.02,4.924l3.65.87.012.313c-2.359.309-4.721.606-7.078.932-3.62.5-7.231,1.086-10.861,1.5-1.141.129-1.51.438-1.5,1.607.047,9.383.035,18.766.022,28.148a1.732,1.732,0,0,0,.881,1.732,3,3,0,0,1,1.358,3.668,3.934,3.934,0,0,0-1.056,3.469c.847,6.1,1.073,12.252,1.539,18.386.208,2.747.368,5.5.662,8.238.137,1.279-.074,1.93-1.545,1.858-1.791-.088-3.594-.068-5.386.022-1.211.061-1.564-.393-1.482-1.556.251-3.581.426-7.168.629-10.753.681-5.786.7-11.635,1.621-17.4.083-.524-.348-.784-.6-1.143-1.215-1.73-1.13-3.261.506-4.564a2.519,2.519,0,0,0,1.01-2.273c-.023-5.392-.005-10.782-.007-16.173,0-3.722-.063-7.445.007-11.166.027-1.418-.375-1.812-1.773-1.443a30.723,30.723,0,0,1-3.795.58c-5.142.681-10.287,1.34-15.427,2.043-.89.122-1.967.049-1.738,1.609.613,4.183,1.084,8.386,1.666,12.573.741,5.34,1.355,10.648-.106,16a13.4,13.4,0,0,0-.8,5.279,3.308,3.308,0,0,0-.828,1.9c-.774,3.284-1.576,6.561-2.368,9.841a179.832,179.832,0,0,0-2.743-20.656c-8.027,2.939-15.962,5.824-23.875,8.767a3.709,3.709,0,0,1-2.738.016q-10.32-3.664-20.669-7.247c-4.449-1.547-4.382-1.521-5.089,3.28-.766,5.2-1.041,10.449-1.655,15.683-.422-1.219-.659-2.473-1.061-3.672-.851-2.533-.849-5.309-2.215-7.69a54.7,54.7,0,0,0-1.71-9.193c-.945-3.862-.1-7.505.241-11.22.42-4.588,1.1-9.154,1.686-13.726.094-.731.082-1.183-.853-1.31-9.2-1.242-18.352-2.8-27.584-3.81a32.706,32.706,0,0,0-5.713-.86,3.883,3.883,0,0,0-2-.295,20.161,20.161,0,0,0-4.64-.7C218.707,225.135,218.115,225.35,217.746,224.839Z" transform="translate(-159.638 -209.36)" fill="#100f16"></path>
  <path id="Path_119" data-name="Path 119" d="M426.921,474.15c1.158,3.984,2.111,8.045,3.552,11.924.862,2.322.289,4.36-.082,6.524q-2.644,8.621-5.286,17.242a558.983,558.983,0,0,1-21.969,59.392c-4.052,9.341-8.28,18.6-13.246,27.495-.742-1.239-.642-2.688-.993-4.026q-6.962-26.56-13.864-53.137c-1.806-6.918-3.651-13.826-5.478-20.738-.52-1.98-1.044-3.958-1.56-5.938q-3.335-12.809-6.666-25.619c.01-.869.449-1.136,1.31-1.248,2.026-.263,4.019-.866,6.047-1a3.292,3.292,0,0,0,3.037-2.117c3.982-7.835,8.023-15.638,12.052-23.449,1.4-2.723,2.831-5.433,4.467-8.568-2.364.509-4.287.856-6.167,1.36a3.136,3.136,0,0,1-2.208-.125,21.7,21.7,0,0,1-7.3-4.5,1.961,1.961,0,0,0-2.059-.48,78.691,78.691,0,0,1-17.866,2.329c-3.773.147-7.549.2-11.317.656-3.119.379-6.124,1.3-9.238,1.65-.02-4.623-.051-9.246-.057-13.868q-.034-24.566-.052-49.13c.33-.194.646-.413.991-.576q25.256-11.932,50.516-23.857c.689-.325,1.469-.518,1.862-1.276.845-.009,1.219.78,1.867,1.105a24.873,24.873,0,0,1,8.492,12.415c10.429,32.251,20.855,64.5,30.872,96.885A4.332,4.332,0,0,0,426.921,474.15Z" transform="translate(-171.46 -225.27)" fill="#100f16"></path>
  <path id="Path_120" data-name="Path 120" d="M181.012,402.581c2.507-5.266,4.283-10.82,6.4-16.239,1.468-3.761,2.885-7.542,4.276-11.333a25.938,25.938,0,0,1,7.584-10.942c1.848-.876,3.114-2.853,5.419-2.858a3.647,3.647,0,0,0,1.59,1.031q23.678,11.715,47.355,23.434c2.558,1.272,5.327,2.175,7.564,4.054-.046.7-.13,1.4-.131,2.1q-.016,18.428-.028,36.857c0,.669.286,1.416-.32,2L258.55,428.4c-.2-.33-.365-.679-.59-.987-6.481-8.833-12.993-17.642-19.425-26.51-1.073-1.48-1.685-.348-2.458.136-.838.525-1.561.928-.613,2.186,5.205,6.908,10.313,13.887,15.433,20.858a5.522,5.522,0,0,1,1.451,2.417c-2.511-.957-5.035-1.883-7.531-2.878-3.52-1.4-4.564-1.06-6.369,2.218-.458.832-.758,1.929-1.851,2.045-2.609.276-3.266,2.1-3.67,4.24-.259,1.368-.313,2.883-1.661,3.738-1.647,1.043-2.118,2.555-2.234,4.409-.12,1.944-.22,3.958-1.51,5.615-3.156,1.384-6.3,2.791-9.474,4.137-.828.351-.844.974-.94,1.692q-.787,5.908-1.646,11.8-2.278,15.787-4.575,31.572c-.492,3.524-.968,7.052-1.48,10.573-1.2,8.293-2.436,16.581-3.637,24.873-1.12,7.723-2.212,15.45-3.322,23.175-.938,6.522-1.907,13.04-2.819,19.565-.522,3.737-.962,7.488-1.426,11.233-.078.628.03,1.32-.746,1.619a210.422,210.422,0,0,1-13.516-24.388,478.965,478.965,0,0,1-28.288-72.261c-.019-.061-.049-.119-.068-.18-.961-3.256-2.721-6.529-2.654-9.764.065-3.16,1.968-6.293,3.112-9.42,2.534-6.921,5.242-13.783,7.587-20.766,1.148-3.418,2.735-6.657,3.764-10.109q5.4-14.26,10.787-28.524C179.19,408.033,180.071,405.3,181.012,402.581Z" transform="translate(-152.929 -225.076)" fill="#100f16"></path>
  <path id="Path_121" data-name="Path 121" d="M335.585,519.406l-8.953.021c-3.848-.109-7.7-.23-11.543-.326-4.074-.1-7.983-1.148-11.9-2.108a11.267,11.267,0,0,1-4.305-2.491q-9.08-7.45-18.116-14.953c-1.888-1.573-1.687-3.072.489-4.032a1.206,1.206,0,0,0,.745-.941c.634-1.991,1.8-2.611,3.823-2.043a13.912,13.912,0,0,1,2.318.929c1.4.687,2.586,1.745,3.963-.4.8-1.243,2.566-.706,3.924-.1,4.744,2.1,9.478,4.233,14.25,6.278a15.211,15.211,0,0,0,9.874,1.006c2.865-.672,5.8-1.038,8.717-1.5a3.994,3.994,0,0,0,2.057-.944c1.873-1.612,1.923-1.948.385-3.852a8.717,8.717,0,0,1-2.383-5.926,3.72,3.72,0,0,1,2.018-3.473c1.317-.649,2.48-.082,3.513.82a34.582,34.582,0,0,0,5.883,4.328c4.3,2.387,5.928,6.009,5.2,10.793a4.889,4.889,0,0,0,.623.714,10.713,10.713,0,0,1,1.078,15.717,5.372,5.372,0,0,1-2.571,1.587A35.288,35.288,0,0,1,335.585,519.406Z" transform="translate(-166.027 -237.813)" fill="#dddce4"></path>
  <path id="Path_122" data-name="Path 122" d="M322.613,461.476c3.114-.346,6.119-1.271,9.238-1.65,3.767-.457,7.544-.509,11.317-.656a78.689,78.689,0,0,0,17.866-2.329,1.961,1.961,0,0,1,2.059.48,21.693,21.693,0,0,0,7.3,4.5c.1.715-.472.621-.878.716-17.591,4.121-35.131,8.469-52.841,12.07-1.589.324-2.441,1.577-3.669,2.346-3.849-3.2-8.124-3.344-12.609-1.692-.928.342-1.957.732-2.1,1.98-5.2-3.645-11.464-2.99-17.252-4.132-13.314-2.627-26.712-4.832-40.075-7.214a2.749,2.749,0,0,1-.532-.216,19.179,19.179,0,0,0,5.735-4.389,1.989,1.989,0,0,1,2.134-.829c6.7,1.457,13.525,1.521,20.337,1.711l2.64-.059c2.906.185,5.831-.073,9.051.529l-3.29-4.3c1.42.2,2.651-.528,3.972-.814a16.907,16.907,0,0,1,3.015,4.868,1.521,1.521,0,0,0,1.365,1.08,62.124,62.124,0,0,1,8.677,2.482l1.519.513c3,1.544,6.136,2.844,8.864,4.877a.834.834,0,0,0,1.288-.112c4.69-4.557,10.368-7.4,16.484-9.48l.4-.345Z" transform="translate(-161.986 -234.963)" fill="#f77e0b"></path>
  <path id="Path_123" data-name="Path 123" d="M267.978,459.4c-6.812-.189-13.639-.254-20.337-1.711a1.989,1.989,0,0,0-2.134.829,19.181,19.181,0,0,1-5.735,4.389l-5.4-.923a7.976,7.976,0,0,1,.092-5.058c.411-1.339,1.376-2.464,1.451-3.917,1.29-1.657,1.39-3.671,1.51-5.615.116-1.854.587-3.365,2.234-4.409,1.348-.855,1.4-2.37,1.661-3.738.4-2.138,1.061-3.964,3.67-4.24,1.094-.116,1.393-1.213,1.851-2.045,1.8-3.278,2.849-3.621,6.369-2.218,2.5,1,5.02,1.921,7.532,2.878a22.619,22.619,0,0,0,6.2,1.9l2.17,2.279c1.1,1.347,1.795,3.045,3.441,3.908.117,1.12,1.054,1.769,1.721,2.408,1.658,1.589,2.56,3.938,4.846,4.887.475,1.9,2.166,3.547,1.233,5.754-1.321.286-2.552,1.01-3.972.814-.685-.235-.985-1.161-1.864-1.1-.209,2.843-.877,3.638-3.53,4.252C269.972,458.9,268.349,456.364,267.978,459.4Zm-2.754-13.854.41.363.373.381q.176.219.353.437l.388.383.386.386c.074.072.2.215.218.2.236-.172.028-.245-.089-.337l-.385-.391-.377-.4-.5-.644-.4,0c.124-.274-.05-.406-.251-.524l-.315-.459-.371-.39-.368-.39c-.139-.12-.278-.241-.417-.359l-.423-.37-.408-.15.207.366.379.387.391.385.4.377.393.378Zm4.261,3.836.152.194c0-.039,0-.093-.018-.113a.539.539,0,0,0-.146-.071l-.377-.4-.382-.386-.384-.322-.125.217.489.125.389.38Z" transform="translate(-161.32 -232.192)" fill="#dddce4"></path>
  <path id="Path_124" data-name="Path 124" d="M234.213,455.668c-.075,1.453-1.041,2.577-1.451,3.917a7.975,7.975,0,0,0-.092,5.058c-3.238-.4-3.2-.405-2.8,2.923,1.077,9.068,2.115,18.141,3.168,27.211-4.735,3.345-9.531,6.607-13.99,10.326-.481-.121-1.269,1.688-1.467-.231q2.289-15.786,4.575-31.572.851-5.9,1.646-11.8c.1-.718.111-1.341.94-1.693C227.91,458.459,231.057,457.052,234.213,455.668Z" transform="translate(-159.62 -234.853)" fill="#f9f9f9"></path>
  <path id="Path_125" data-name="Path 125" d="M342.063,521.119a35.289,35.289,0,0,0,9.085-.9,5.372,5.372,0,0,0,2.571-1.587,10.713,10.713,0,0,0-1.078-15.717,4.873,4.873,0,0,1-.623-.714c3.017.287,5.809-.934,8.726-1.334.807-.11,1.294-.089,1.629.659q3.334,12.81,6.666,25.619c.516,1.98,1.04,3.959,1.56,5.939-.181,1.469-1.124.134-1.622.44-2.319-.659-4.647-1.288-6.956-1.981-5.649-1.693-11.543-2.582-16.926-5.149l-2.236-3.079Z" transform="translate(-172.504 -239.526)" fill="#f9f9f9"></path>
  <path id="Path_126" data-name="Path 126" d="M304.978,479.257c.141-1.248,1.17-1.639,2.1-1.98,4.485-1.652,8.761-1.508,12.609,1.692-.642,1.458-2.053,1.571-3.331,1.824a20.522,20.522,0,0,1-8.871-.057C306.526,480.506,305.451,480.358,304.978,479.257Z" transform="translate(-168.666 -236.982)" fill="#777480"></path>
  <path id="Path_127" data-name="Path 127" d="M267.175,387.468c-2.237-1.879-5.006-2.782-7.564-4.054q-23.653-11.765-47.355-23.434a3.637,3.637,0,0,1-1.588-1.03c.167-.6.7-.672,1.175-.866q6.4-2.621,12.784-5.26c7.87-2.7,15.513-5.957,23.155-9.227l1.167-.428.43-.343c3.053-.473,5.677-2.178,8.6-3.023a5.318,5.318,0,0,1,2.024-.414,10.1,10.1,0,0,0,1.559,2.64c2.511,2.409,4.2,5.46,6.281,8.2,7.533,9.923,14.863,20,22.27,30.019.576.78.95,1.734,2.017.256,6.994-9.684,14.113-19.277,21.093-28.971,2.43-3.375,5.11-6.581,7.205-10.2,1.992-2.834,4.047-1.371,6.372-.34,6.349,2.813,12.814,5.365,19.222,8.044,1.822.762,3.612,1.6,5.408,2.422a8.233,8.233,0,0,0,3.458,1.034,70.963,70.963,0,0,0,13.895,5.847c.984,1.374,2.912,1.091,4,2.28-.394.758-1.174.951-1.862,1.276q-25.258,11.928-50.516,23.857c-.344.163-.661.383-.991.576l-26.934,12.686-1.081.265c-4.747-2.78-9.849-4.846-14.739-7.34C273.553,390.355,270.562,388.484,267.175,387.468Z" transform="translate(-158.905 -222.817)" fill="#594a89"></path>
  <path id="Path_128" data-name="Path 128" d="M264.114,271.922c1.366,2.381,1.364,5.158,2.215,7.69.4,1.2.639,2.453,1.061,3.672.614-5.235.889-10.482,1.655-15.683.707-4.8.64-4.828,5.089-3.28q10.344,3.6,20.669,7.247a3.709,3.709,0,0,0,2.738-.016c7.913-2.943,15.847-5.828,23.875-8.767a179.8,179.8,0,0,1,2.743,20.656c.792-3.279,1.594-6.557,2.368-9.841a3.309,3.309,0,0,1,.828-1.9c2.785-.007,3.973,1.146,4.214,3.993.38,4.474-.866,8.685-2.022,12.914-1.136,2.22-1.949,4.947-4.39,5.866-2.4.905-2.951,2.579-3.484,4.642a40.89,40.89,0,0,1-3.911,10,4.2,4.2,0,0,0-.523,1.832c-.979.357-1.373,1.28-1.936,2.03a33.455,33.455,0,0,1-13.169,10.944c-2.577,1.143-5.222,2.057-8.168,1.469-6.7-1.335-11.62-5.392-16.078-10.228-1.073-1.165-1.7-2.742-3.217-3.5a4.434,4.434,0,0,0-.338-1.285c-2.672-4.238-4.043-8.962-5.191-13.768-.162-.68-.342-1.219-1.087-1.389-3.2-.728-4.741-3.292-5.808-5.92a27.868,27.868,0,0,1-2.331-13.472C260.316,272.024,261.445,271.673,264.114,271.922Z" transform="translate(-163.99 -214.89)" fill="#dddce4"></path>
  <path id="Path_129" data-name="Path 129" d="M326.3,340.235c-2.1,3.615-4.775,6.821-7.205,10.2-6.98,9.694-14.1,19.287-21.093,28.971-1.067,1.477-1.441.523-2.017-.256-7.407-10.018-14.737-20.1-22.27-30.019-2.079-2.738-3.77-5.789-6.281-8.2-.268-.756.367-1.173.671-1.692,1.9-3.243,3.834-6.468,5.756-9.7l.063.011a.883.883,0,0,1,1.328-.507,1.224,1.224,0,0,0,.223.308q10.185,7.268,20.371,14.536a1.619,1.619,0,0,0,2.236-.024c1.61-1.271,3.277-2.472,4.926-3.692q7.734-5.718,15.473-11.429c.827.03.938.793,1.263,1.295C321.951,333.423,324.121,336.833,326.3,340.235Z" transform="translate(-164.774 -221.716)" fill="#f9f9f9"></path>
  <path id="Path_130" data-name="Path 130" d="M319.4,327.475q-7.736,5.715-15.473,11.429c-1.65,1.22-3.316,2.421-4.926,3.692a1.619,1.619,0,0,1-2.236.024q-10.173-7.284-20.371-14.536a1.223,1.223,0,0,1-.223-.307c.167-3.513-.2-7.036.2-10.544,1.518.754,2.145,2.332,3.218,3.5,4.458,4.837,9.381,8.893,16.078,10.228,2.946.588,5.591-.326,8.168-1.469A33.455,33.455,0,0,0,317,318.544c.563-.75.957-1.673,1.936-2.03.018,3,.021,5.995.065,8.992C319.011,326.173,318.732,326.928,319.4,327.475Z" transform="translate(-165.684 -220.451)" fill="#acabb6"></path>
  <path id="Path_131" data-name="Path 131" d="M369.063,536.118c.5-.306,1.441,1.029,1.622-.44,1.828,6.912,3.672,13.82,5.479,20.738q6.936,26.568,13.864,53.137c.351,1.338.251,2.787.993,4.026-2.1,4.058-3.47,4.576-7.254,2.743-5.31-3.681-8.807-8.937-12.126-14.278-10.208-16.427-17.143-34.289-22.756-52.711-2.149-7.054-4.312-14.1-5.842-21.329a5.463,5.463,0,0,1-.1-2.1l2.236,3.078c.321,1.629.567,3.277.975,4.883a293.061,293.061,0,0,0,13.088,40c4.945,11.937,10.506,23.564,18.325,33.95,2.041,2.711,4.189,5.384,7.142,7.2.907.559,1.9,1.14,3.051.467,1.087-.635,1.031-1.673,1.014-2.712a11.232,11.232,0,0,0-.31-2.664c-2.675-10.358-5.268-20.739-7.985-31.086C376.72,564.711,372.873,550.42,369.063,536.118Z" transform="translate(-172.589 -242.123)" fill="#403d4e"></path>
  <path id="Path_133" data-name="Path 133" d="M253.8,343.225l-.43.343Z" transform="translate(-163.325 -223.215)" fill="#686675"></path>
  <path id="Path_134" data-name="Path 134" d="M301.935,404.438l26.934-12.685q.026,24.564.052,49.13c.006,4.622.038,9.245.057,13.868l.016-.069-.4.345c-6.116,2.081-11.794,4.924-16.484,9.48a.834.834,0,0,1-1.288.112c-2.727-2.033-5.864-3.333-8.864-4.877.016-.641.048-1.281.048-1.922.006-16.552.029-33.1-.028-49.655C301.974,406.928,302.767,405.662,301.935,404.438Z" transform="translate(-168.351 -228.238)" fill="#403d4e"></path>
  <path id="Path_135" data-name="Path 135" d="M273.644,393.02c3.387,1.016,6.378,2.887,9.492,4.475,4.89,2.493,9.992,4.56,14.739,7.339a1.919,1.919,0,0,0-.44,1.608q.016,26.459.028,52.919a62.108,62.108,0,0,0-8.677-2.482,1.521,1.521,0,0,1-1.365-1.08,16.909,16.909,0,0,0-3.015-4.868c.933-2.206-.758-3.85-1.233-5.754,2.288-3.469,1.182-6.22-2.791-6.96a11.676,11.676,0,0,0-3.776-.335c-1.646-.862-2.344-2.56-3.441-3.908.606-.585.319-1.332.32-2q.032-18.429.028-36.857C273.514,394.418,273.6,393.718,273.644,393.02Z" transform="translate(-165.373 -228.369)" fill="#403d4e"></path>
  <path id="Path_136" data-name="Path 136" d="M268.027,432.9a22.611,22.611,0,0,1-6.2-1.9,5.523,5.523,0,0,0-1.451-2.417c-5.12-6.971-10.228-13.95-15.433-20.858-.948-1.259-.225-1.661.613-2.186.773-.484,1.385-1.616,2.458-.136,6.432,8.868,12.944,17.677,19.425,26.51C267.662,432.222,267.831,432.572,268.027,432.9Z" transform="translate(-162.406 -229.575)" fill="#f77e0b"></path>
  <path id="Path_137" data-name="Path 137" d="M300.265,460.694q-.013-26.459-.028-52.919a1.919,1.919,0,0,1,.44-1.608l1.081-.264c.833,1.224.04,2.49.045,3.727.057,16.551.034,33.1.028,49.655,0,.641-.031,1.281-.048,1.922Z" transform="translate(-168.175 -229.702)" fill="#100f16"></path>
  <path id="Path_138" data-name="Path 138" d="M275.214,461.55c2.653-.614,3.321-1.409,3.53-4.252.879-.061,1.179.865,1.864,1.1l3.29,4.3c-3.22-.6-6.145-.344-9.051-.529Z" transform="translate(-165.547 -235.021)" fill="#484553"></path>
  <path id="Path_139" data-name="Path 139" d="M274.909,461.946l-.368.618-2.64.059C272.272,459.589,273.895,462.122,274.909,461.946Z" transform="translate(-165.243 -235.417)" fill="#100f16"></path>
  <path id="Path_140" data-name="Path 140" d="M331.673,462.292l.4-.345Z" transform="translate(-171.429 -235.503)" fill="#100f16"></path>
  <path id="Path_141" data-name="Path 141" d="M277,443.055a11.679,11.679,0,0,1,3.776.335c3.972.74,5.079,3.49,2.791,6.96-2.286-.949-3.188-3.3-4.846-4.887C278.057,444.824,277.12,444.175,277,443.055Z" transform="translate(-165.771 -233.542)" fill="#acabb6"></path>
  <path id="Path_142" data-name="Path 142" d="M272.644,450.745l-.488-.125.125-.217.384.322Z" transform="translate(-165.269 -234.308)" fill="#93919d"></path>
  <path id="Path_143" data-name="Path 143" d="M270.053,448.569l-.352-.437a1.994,1.994,0,0,1-.011-.358q.253.321.5.644Z" transform="translate(-165.013 -234.036)" fill="#93919d"></path>
  <path id="Path_144" data-name="Path 144" d="M269.644,447.772a1.989,1.989,0,0,0,.011.358l-.373-.382-.034.028Z" transform="translate(-164.968 -234.033)" fill="#686675"></path>
  <path id="Path_145" data-name="Path 145" d="M270.484,449.027l-.388-.383.14-.15.378.395Z" transform="translate(-165.056 -234.11)" fill="#93919d"></path>
  <path id="Path_146" data-name="Path 146" d="M270.659,448.934l.385.391-.13.133-.385-.385Z" transform="translate(-165.101 -234.156)" fill="#93919d"></path>
  <path id="Path_147" data-name="Path 147" d="M271.089,449.37c.116.092.325.165.089.337-.016.011-.143-.133-.219-.2Z" transform="translate(-165.145 -234.201)" fill="#93919d"></path>
  <path id="Path_148" data-name="Path 148" d="M273.147,451.193l.377.4.012-.011-.4-.372Z" transform="translate(-165.37 -234.39)" fill="#93919d"></path>
  <path id="Path_149" data-name="Path 149" d="M273.569,451.633a.54.54,0,0,1,.146.071c.022.02.013.074.018.113l-.152-.194Z" transform="translate(-165.415 -234.434)" fill="#93919d"></path>
  <path id="Path_150" data-name="Path 150" d="M272.721,450.762l.382.386-.013.013-.389-.378Z" transform="translate(-165.325 -234.345)" fill="#93919d"></path>
  <path id="Path_151" data-name="Path 151" d="M266.607,445.2l-.207-.366.408.15Z" transform="translate(-164.673 -233.731)" fill="#686675"></path>
  <path id="Path_152" data-name="Path 152" d="M267.445,446.029l-.391-.386c.083-.076.165-.155.246-.235l.415.361A3.084,3.084,0,0,0,267.445,446.029Z" transform="translate(-164.741 -233.791)" fill="#686675"></path>
  <path id="Path_153" data-name="Path 153" d="M267.886,446.448l-.4-.377a3.074,3.074,0,0,1,.27-.259q.186.195.368.39A3.44,3.44,0,0,0,267.886,446.448Z" transform="translate(-164.786 -233.833)" fill="#686675"></path>
  <path id="Path_154" data-name="Path 154" d="M268.325,446.871l-.393-.378c.076-.085.157-.168.242-.246l.372.39C268.469,446.712,268.4,446.79,268.325,446.871Z" transform="translate(-164.832 -233.878)" fill="#686675"></path>
  <path id="Path_155" data-name="Path 155" d="M268.591,446.682c.1.153.21.306.313.461l-.123.132-.411-.359C268.441,446.835,268.514,446.757,268.591,446.682Z" transform="translate(-164.877 -233.923)" fill="#686675"></path>
  <path id="Path_156" data-name="Path 156" d="M269.239,447.691l-.41-.363.123-.132c.2.117.376.248.253.523Z" transform="translate(-164.925 -233.976)" fill="#686675"></path>
  <path id="Path_157" data-name="Path 157" d="M266.832,445l.423.369c-.08.079-.161.158-.245.234l-.379-.387Z" transform="translate(-164.697 -233.749)" fill="#686675"></path>
  <path id="Path_158" data-name="Path 158" d="M369.328,536.474c3.81,14.3,7.658,28.593,11.418,42.907,2.717,10.347,5.31,20.728,7.985,31.086a11.229,11.229,0,0,1,.31,2.664c.017,1.039.073,2.077-1.014,2.712-1.151.673-2.144.092-3.051-.467-2.952-1.819-5.1-4.492-7.142-7.2-7.819-10.385-13.38-22.013-18.325-33.95a293.077,293.077,0,0,1-13.088-40c-.409-1.606-.654-3.254-.975-4.883,5.383,2.568,11.277,3.456,16.926,5.149C364.681,535.186,367.009,535.815,369.328,536.474Z" transform="translate(-172.854 -242.478)" fill="#100f16"></path>
  <path id="Path_159" data-name="Path 159" d="M373.376,353.966l-.081.145.077-.149Z" transform="translate(-175.737 -224.326)" fill="#686675"></path>
  <path id="Path_160" data-name="Path 160" d="M397.473,358.678l.082-.145-.081.148Z" transform="translate(-178.239 -224.799)" fill="#777480"></path>
  <path id="Path_161" data-name="Path 161" d="M390.593,361.275l.143.084-.149-.079Z" transform="translate(-177.527 -225.083)" fill="#777480"></path>
  <path id="Path_162" data-name="Path 162" d="M266.5,514.8l23.752,6.046h.8l6.893-1.79,2.621.7L292,522.615q-.025,47.974-.047,95.948h-1.543q-.009-47.974.021-95.949l-23.945-5.66q-.031,42.514-.024,85.027c0,5.527.023,11.054.036,16.581H209.8q-.023-8.266-.045-16.533c6.726-6.216,10.568-14.3,14.211-22.435,8.623-19.255,13.633-39.6,17.746-60.2.476-2.386.879-4.788,1.242-7.194l-1.5-.293c-.806,4.149-1.7,9.179-2.53,13.324a307.568,307.568,0,0,1-9.264,35.317c-3.706,11.364-8.158,22.435-14.527,32.624a33.719,33.719,0,0,1-5.655,7.036,8.282,8.282,0,0,1-1.7,1.235c-1.688.9-2.572.39-2.6-1.521a58.859,58.859,0,0,1,.9-8.786c1.2-8.815,2.472-17.62,3.747-26.423,1.176-8.108,2.408-16.207,3.588-24.314,1.134-7.788,2.229-15.582,3.352-23.372a64.517,64.517,0,0,0,1-7.4c4.459-3.719,9.255-6.981,13.99-10.326.288,2.674.567,5.349.868,8.023.118,1.047.492,1.688,1.783,1.773,1.712.114,3.393.753,5.1.844l5.348.956" transform="translate(-158.336 -239.368)" fill="#100f16"></path>
  <path id="Path_163" data-name="Path 163" d="M300.957,523.329" transform="translate(-168.25 -241.856)" fill="#403d4e"></path>
  <path id="Path_164" data-name="Path 164" d="M310.586,522.111c3.855.09,14.61,1.183,18.465,1.362V621.1H302.067c0-32.005,0-63.921.09-95.925" transform="translate(-168.365 -241.73)" fill="#403d4e"></path>
  <path id="Path_165" data-name="Path 165" d="M241.067,466.83" transform="translate(-162.051 -236.008)" fill="#403d4e"></path>
  <path id="Path_166" data-name="Path 166" d="M242.73,513.409c-.359,2.421-.807,4.841-1.255,7.172-4.124,20.619-9.144,40.97-17.751,60.245-3.676,8.158-7.441,16.227-14.254,22.413-3.317,2.331-4.841,2.062-6.9-1.614.807-.269.628-.986.717-1.614.448-3.765.9-7.531,1.434-11.206.9-6.544,1.883-13,2.779-19.544,1.076-7.71,2.241-15.42,3.317-23.219,1.165-8.248,2.421-16.585,3.676-24.833.538-3.5.986-7.082,1.524-10.579.179,1.883.986.09,1.434.269a70.482,70.482,0,0,1-.986,7.441c-1.165,7.8-2.241,15.6-3.317,23.4-1.165,8.069-2.421,16.227-3.586,24.3-1.255,8.786-2.51,17.571-3.765,26.447a58.379,58.379,0,0,0-.9,8.786c0,1.883.9,2.421,2.6,1.524a11.929,11.929,0,0,0,1.7-1.255,35.126,35.126,0,0,0,5.648-6.993c6.365-10.22,10.848-21.247,14.523-32.633a300.8,300.8,0,0,0,9.234-35.322c.807-4.124,1.771-9.387,2.577-13.511" transform="translate(-158.066 -240.542)" fill="#403d4e"></path>
  <path id="Path_167" data-name="Path 167" d="M285.474,463.51a62.131,62.131,0,0,1,8.678,2.481l1.518.513c3,1.544,6.137,2.844,8.864,4.877a.835.835,0,0,0,1.289-.112c4.689-4.557,10.368-7.4,16.484-9.48l.4-.345-.016.069c3.114-.346,6.119-1.271,9.238-1.65,3.767-.457,7.543-.509,11.316-.656a78.594,78.594,0,0,0,17.866-2.329,1.962,1.962,0,0,1,2.058.48,21.7,21.7,0,0,0,7.3,4.5c.1.715-.472.621-.877.716-17.592,4.122-35.131,8.47-52.841,12.07-1.589.323-2.441,1.576-3.668,2.345-3.85-3.2-8.125-3.344-12.609-1.692-.928.342-1.957.732-2.1,1.98-5.2-3.645-11.465-2.99-17.252-4.131-13.315-2.628-26.712-4.833-40.075-7.215a2.756,2.756,0,0,1-.533-.216,19.169,19.169,0,0,0,5.736-4.389,1.988,1.988,0,0,1,2.134-.829c6.7,1.457,13.525,1.521,20.336,1.71l2.641-.059c2.906.185,5.831-.073,9.051.529Z" transform="translate(-161.994 -234.967)" fill="#fff"></path>
</svg></svg></g></g></svg></g><g id="dark-icon"><svg xmlns="http://www.w3.org/2000/svg" version="1.1" xmlns:xlink="http://www.w3.org/1999/xlink" width="1000" height="1000"><g clip-path="url(#SvgjsClipPath1081)"><rect width="1000" height="1000" fill="#ffffff"></rect><g transform="matrix(1.8451594876782886,0,0,1.8451594876782886,260.62376934452027,150)"><svg xmlns="http://www.w3.org/2000/svg" version="1.1" xmlns:xlink="http://www.w3.org/1999/xlink" width="259.464" height="379.371"><svg xmlns="http://www.w3.org/2000/svg" width="259.464" height="379.371" viewBox="0 0 259.464 379.371">
  <g id="scholarbrood-dark-logo" transform="translate(0 0.001)">
    <path id="Path_114" data-name="Path 114" d="M297.5,524.653q-.058,47.974-.021,95.949H273.571c-.013-5.527-.036-11.054-.036-16.581q0-42.513.024-85.027Z" transform="translate(-165.412 -241.407)" fill="#f77e0b"></path>
    <path id="Path_115" data-name="Path 115" d="M300.957,523.329" transform="translate(-168.25 -241.856)" fill="#403d4e"></path>
    <path id="Path_116" data-name="Path 116" d="M264.633,510.489q-10.037-1.689-20.045-3.561c-1.284-.241-1.719.107-1.9,1.308-.362,2.406-.766,4.809-1.242,7.194-4.113,20.6-9.123,40.949-17.746,60.2-3.643,8.135-7.485,16.219-14.211,22.435-3.351,2.376-4.824,2.033-6.892-1.6.775-.3.668-.991.746-1.619.464-3.746.9-7.5,1.426-11.233.912-6.526,1.881-13.043,2.819-19.565,1.111-7.724,2.2-15.452,3.322-23.175,1.2-8.293,2.433-16.581,3.637-24.873.512-3.521.988-7.049,1.48-10.573.2,1.919.985.11,1.467.231a64.5,64.5,0,0,1-1,7.4c-1.123,7.79-2.218,15.584-3.352,23.372-1.18,8.107-2.412,16.206-3.588,24.314-1.276,8.8-2.55,17.608-3.747,26.424a58.87,58.87,0,0,0-.9,8.786c.029,1.911.913,2.417,2.6,1.521a8.28,8.28,0,0,0,1.7-1.235,33.709,33.709,0,0,0,5.655-7.036c6.369-10.189,10.821-21.26,14.527-32.624a307.563,307.563,0,0,0,9.264-35.318c.826-4.144,1.619-8.3,2.425-12.445.3-1.532.295-2.736-1.842-2.849-1.711-.09-3.392-.73-5.1-.844-1.291-.085-1.665-.726-1.783-1.773-.3-2.673-.58-5.349-.868-8.023-1.053-9.071-2.092-18.143-3.168-27.211-.4-3.329-.436-3.323,2.8-2.924l5.4.923a2.752,2.752,0,0,0,.532.216c13.363,2.382,26.761,4.587,40.075,7.214,5.788,1.142,12.054.487,17.252,4.132.473,1.1,1.548,1.249,2.5,1.478a20.519,20.519,0,0,0,8.871.057c1.278-.254,2.69-.367,3.331-1.824,1.228-.769,2.081-2.022,3.669-2.346,17.71-3.6,35.25-7.948,52.841-12.07.4-.1.975,0,.878-.716a3.136,3.136,0,0,0,2.208.125c1.88-.5,3.8-.851,6.167-1.36-1.636,3.135-3.063,5.845-4.467,8.568-4.029,7.81-8.069,15.614-12.052,23.449a3.292,3.292,0,0,1-3.037,2.117c-2.028.131-4.021.734-6.047,1-.861.112-1.3.379-1.31,1.248-.335-.748-.822-.769-1.629-.659-2.916.4-5.709,1.621-8.726,1.334.731-4.784-.9-8.4-5.2-10.793a34.589,34.589,0,0,1-5.883-4.328c-1.033-.9-2.2-1.469-3.512-.82a3.72,3.72,0,0,0-2.018,3.473,8.716,8.716,0,0,0,2.383,5.926c1.538,1.9,1.488,2.24-.385,3.852a3.994,3.994,0,0,1-2.057.944c-2.912.464-5.852.83-8.717,1.5a15.21,15.21,0,0,1-9.874-1.006c-4.772-2.045-9.506-4.173-14.25-6.278-1.358-.6-3.126-1.14-3.924.1-1.377,2.144-2.558,1.087-3.963.4a13.905,13.905,0,0,0-2.318-.929c-2.026-.568-3.19.052-3.824,2.043a1.206,1.206,0,0,1-.745.941c-2.176.96-2.377,2.459-.489,4.032q9.023,7.518,18.116,14.953a11.264,11.264,0,0,0,4.3,2.491c3.916.959,7.826,2.006,11.9,2.108,3.848.1,7.7.217,11.543.326q-.019,13.306-.036,26.612.012,35.484.042,70.969h-27q.022-47.974.047-95.948" transform="translate(-158.07 -235.408)" fill="#93181e"></path>
    <path id="Path_117" data-name="Path 117" d="M382.643,616.07l-.041,4.994H332.078q-.023-35.484-.042-70.969,0-13.306.036-26.612l8.953-.021.8,2.193a5.463,5.463,0,0,0,.1,2.1c1.529,7.225,3.693,14.275,5.842,21.329,5.613,18.421,12.547,36.283,22.756,52.711C373.836,607.132,377.333,612.389,382.643,616.07Z" transform="translate(-171.467 -241.87)" fill="#999"></path>
    <path id="Path_118" data-name="Path 118" d="M217.746,224.839q9.1-1.911,18.2-3.826c3.675-.778,7.343-1.583,11.014-2.377a69.746,69.746,0,0,0,8.563-1.817c5.577-.787,11.023-2.219,16.528-3.362,6.132-1.272,12.252-2.607,18.366-3.963,1.783-.4,3.424.182,5.106.506,2.322.446,4.633.943,6.95,1.418,6.033,1.264,12.062,2.545,18.1,3.788,5.261,1.083,10.531,2.121,15.8,3.179.736.171,1.469.36,2.209.512q12.009,2.466,24.02,4.924l3.65.87.012.313c-2.359.309-4.721.606-7.078.932-3.62.5-7.231,1.086-10.861,1.5-1.141.129-1.51.438-1.5,1.607.047,9.383.035,18.766.022,28.148a1.732,1.732,0,0,0,.881,1.732,3,3,0,0,1,1.358,3.668,3.934,3.934,0,0,0-1.056,3.469c.847,6.1,1.073,12.252,1.539,18.386.208,2.747.368,5.5.662,8.238.137,1.279-.074,1.93-1.545,1.858-1.791-.088-3.594-.068-5.386.022-1.211.061-1.564-.393-1.482-1.556.251-3.581.426-7.168.629-10.753.681-5.786.7-11.635,1.621-17.4.083-.524-.348-.784-.6-1.143-1.215-1.73-1.13-3.261.506-4.564a2.519,2.519,0,0,0,1.01-2.273c-.023-5.392-.005-10.782-.007-16.173,0-3.722-.063-7.445.007-11.166.027-1.418-.375-1.812-1.773-1.443a30.723,30.723,0,0,1-3.8.58c-5.142.681-10.287,1.34-15.427,2.043-.89.122-1.967.049-1.738,1.609.613,4.183,1.084,8.386,1.666,12.573.741,5.34,1.355,10.648-.106,16a13.4,13.4,0,0,0-.8,5.279,3.308,3.308,0,0,0-.828,1.9c-.774,3.284-1.576,6.561-2.368,9.841a179.828,179.828,0,0,0-2.743-20.656c-8.027,2.939-15.962,5.824-23.875,8.767a3.709,3.709,0,0,1-2.738.016q-10.32-3.664-20.669-7.247c-4.449-1.547-4.382-1.521-5.089,3.28-.766,5.2-1.041,10.449-1.655,15.683-.422-1.219-.659-2.473-1.061-3.672-.851-2.533-.849-5.309-2.215-7.69a54.7,54.7,0,0,0-1.71-9.193c-.945-3.862-.1-7.5.241-11.22.42-4.588,1.1-9.154,1.686-13.726.094-.731.082-1.183-.853-1.31-9.2-1.242-18.352-2.8-27.584-3.81a32.706,32.706,0,0,0-5.713-.86,3.883,3.883,0,0,0-2-.295,20.161,20.161,0,0,0-4.64-.7C218.707,225.135,218.115,225.35,217.746,224.839Z" transform="translate(-159.638 -209.36)" fill="#999"></path>
    <path id="Path_119" data-name="Path 119" d="M426.921,474.15c1.158,3.984,2.111,8.045,3.552,11.924.862,2.322.289,4.36-.082,6.524q-2.644,8.621-5.286,17.242a558.989,558.989,0,0,1-21.969,59.392c-4.052,9.341-8.28,18.6-13.246,27.495-.742-1.239-.642-2.688-.993-4.026q-6.962-26.56-13.864-53.137c-1.806-6.918-3.651-13.826-5.478-20.738q-.78-2.97-1.56-5.938-3.335-12.809-6.666-25.619c.01-.869.449-1.136,1.31-1.248,2.026-.263,4.019-.866,6.047-1a3.292,3.292,0,0,0,3.037-2.117c3.982-7.835,8.023-15.638,12.052-23.449,1.4-2.723,2.831-5.433,4.467-8.568-2.364.509-4.287.856-6.167,1.36a3.136,3.136,0,0,1-2.208-.125,21.7,21.7,0,0,1-7.3-4.5,1.961,1.961,0,0,0-2.059-.48,78.692,78.692,0,0,1-17.866,2.329c-3.773.147-7.549.2-11.317.656-3.119.379-6.124,1.3-9.238,1.65-.02-4.623-.051-9.246-.057-13.868q-.034-24.566-.052-49.13c.33-.194.646-.413.991-.576q25.256-11.932,50.516-23.857c.689-.325,1.469-.518,1.862-1.276.845-.009,1.219.78,1.867,1.105a24.873,24.873,0,0,1,8.492,12.415c10.429,32.251,20.855,64.5,30.872,96.885A4.333,4.333,0,0,0,426.921,474.15Z" transform="translate(-171.46 -225.27)" fill="#999"></path>
    <path id="Path_120" data-name="Path 120" d="M181.012,402.581c2.507-5.266,4.283-10.82,6.4-16.239q2.2-5.641,4.276-11.333a25.938,25.938,0,0,1,7.584-10.942c1.848-.876,3.114-2.853,5.419-2.858a3.647,3.647,0,0,0,1.59,1.031q23.678,11.715,47.355,23.434c2.558,1.272,5.327,2.175,7.564,4.054-.046.7-.13,1.4-.131,2.1q-.016,18.428-.028,36.857c0,.669.286,1.416-.32,2L258.55,428.4c-.2-.33-.365-.679-.59-.987-6.481-8.833-12.993-17.642-19.425-26.51-1.073-1.48-1.685-.348-2.458.136-.838.525-1.561.928-.613,2.186,5.205,6.908,10.313,13.887,15.433,20.858a5.522,5.522,0,0,1,1.451,2.417c-2.511-.957-5.035-1.883-7.531-2.878-3.52-1.4-4.564-1.06-6.369,2.218-.458.832-.758,1.929-1.851,2.045-2.609.276-3.266,2.1-3.67,4.24-.259,1.368-.313,2.883-1.661,3.738-1.647,1.043-2.118,2.555-2.234,4.409-.12,1.944-.22,3.958-1.51,5.615-3.156,1.384-6.3,2.791-9.474,4.137-.828.351-.844.974-.94,1.692q-.787,5.908-1.646,11.8-2.278,15.787-4.575,31.572c-.492,3.524-.968,7.052-1.48,10.573-1.2,8.293-2.436,16.581-3.637,24.873-1.12,7.723-2.212,15.45-3.322,23.175-.938,6.522-1.907,13.04-2.819,19.565-.522,3.737-.962,7.488-1.426,11.233-.078.628.03,1.32-.746,1.619a210.421,210.421,0,0,1-13.516-24.388,478.969,478.969,0,0,1-28.288-72.261c-.019-.061-.049-.119-.068-.18-.961-3.256-2.721-6.529-2.654-9.764.065-3.16,1.968-6.293,3.112-9.42,2.534-6.921,5.242-13.783,7.587-20.766,1.148-3.418,2.735-6.657,3.764-10.109q5.4-14.26,10.787-28.524C179.19,408.033,180.071,405.3,181.012,402.581Z" transform="translate(-152.929 -225.076)" fill="#999"></path>
    <path id="Path_121" data-name="Path 121" d="M335.585,519.406l-8.953.021c-3.848-.109-7.7-.23-11.543-.326-4.074-.1-7.983-1.148-11.9-2.108a11.267,11.267,0,0,1-4.3-2.491q-9.08-7.45-18.116-14.953c-1.888-1.573-1.687-3.072.489-4.032a1.206,1.206,0,0,0,.745-.941c.634-1.991,1.8-2.611,3.823-2.043a13.914,13.914,0,0,1,2.318.929c1.4.687,2.586,1.745,3.963-.4.8-1.243,2.566-.706,3.924-.1,4.744,2.1,9.478,4.233,14.25,6.278a15.211,15.211,0,0,0,9.874,1.006c2.865-.672,5.8-1.038,8.717-1.5a3.993,3.993,0,0,0,2.057-.944c1.873-1.612,1.923-1.948.385-3.852a8.717,8.717,0,0,1-2.383-5.926,3.72,3.72,0,0,1,2.018-3.473c1.317-.649,2.48-.082,3.513.82a34.582,34.582,0,0,0,5.883,4.328c4.3,2.387,5.928,6.009,5.2,10.793a4.894,4.894,0,0,0,.623.714,10.713,10.713,0,0,1,1.078,15.717,5.372,5.372,0,0,1-2.571,1.587A35.289,35.289,0,0,1,335.585,519.406Z" transform="translate(-166.027 -237.813)" fill="#dddce4"></path>
    <path id="Path_122" data-name="Path 122" d="M322.613,461.476c3.114-.346,6.119-1.271,9.238-1.65,3.767-.457,7.544-.509,11.317-.656a78.689,78.689,0,0,0,17.866-2.329,1.961,1.961,0,0,1,2.059.48,21.693,21.693,0,0,0,7.3,4.5c.1.715-.472.621-.878.716-17.591,4.121-35.131,8.469-52.841,12.07-1.589.324-2.441,1.577-3.669,2.346-3.849-3.2-8.124-3.344-12.609-1.692-.928.342-1.957.732-2.1,1.98-5.2-3.645-11.464-2.99-17.252-4.132-13.314-2.627-26.712-4.832-40.075-7.214a2.751,2.751,0,0,1-.532-.216,19.179,19.179,0,0,0,5.735-4.389,1.989,1.989,0,0,1,2.134-.829c6.7,1.457,13.525,1.521,20.337,1.711l2.64-.059c2.906.185,5.831-.073,9.051.529l-3.29-4.3c1.42.2,2.651-.528,3.972-.814a16.907,16.907,0,0,1,3.015,4.868,1.521,1.521,0,0,0,1.365,1.08,62.119,62.119,0,0,1,8.677,2.482l1.519.513c3,1.544,6.136,2.844,8.864,4.877a.834.834,0,0,0,1.288-.112c4.69-4.557,10.368-7.4,16.484-9.48l.4-.345Z" transform="translate(-161.986 -234.963)" fill="#f77e0b"></path>
    <path id="Path_123" data-name="Path 123" d="M267.978,459.4c-6.812-.189-13.639-.254-20.337-1.711a1.989,1.989,0,0,0-2.134.829,19.181,19.181,0,0,1-5.735,4.389l-5.4-.923a7.976,7.976,0,0,1,.092-5.058c.411-1.339,1.376-2.464,1.451-3.917,1.29-1.657,1.39-3.671,1.51-5.615.116-1.854.587-3.365,2.234-4.409,1.348-.855,1.4-2.37,1.661-3.738.4-2.138,1.061-3.964,3.67-4.24,1.094-.116,1.393-1.213,1.851-2.045,1.8-3.278,2.849-3.621,6.369-2.218,2.5,1,5.02,1.921,7.532,2.878a22.62,22.62,0,0,0,6.2,1.9l2.17,2.279c1.1,1.347,1.8,3.045,3.441,3.908.117,1.12,1.054,1.769,1.721,2.408,1.658,1.589,2.56,3.938,4.846,4.887.475,1.9,2.166,3.547,1.233,5.754-1.321.286-2.552,1.01-3.972.814-.685-.235-.985-1.161-1.864-1.1-.209,2.843-.877,3.638-3.53,4.252C269.972,458.9,268.349,456.364,267.978,459.4Zm-2.754-13.854.41.363.373.381.353.437.388.383.386.386c.074.072.2.215.218.2.236-.172.028-.245-.089-.337l-.385-.391-.377-.4-.5-.644h-.4c.124-.274-.05-.406-.251-.524l-.315-.459-.371-.39-.368-.39c-.139-.12-.278-.241-.417-.359l-.423-.37-.408-.15.207.366.379.387.391.385.4.377.393.378Zm4.261,3.836.152.194a.212.212,0,0,0-.018-.113.538.538,0,0,0-.146-.071l-.377-.4-.382-.386-.384-.322-.125.217.489.125.389.38Z" transform="translate(-161.32 -232.192)" fill="#dddce4"></path>
    <path id="Path_124" data-name="Path 124" d="M234.213,455.668c-.075,1.453-1.041,2.577-1.451,3.917a7.975,7.975,0,0,0-.092,5.058c-3.238-.4-3.2-.4-2.8,2.923,1.077,9.068,2.115,18.141,3.168,27.211-4.735,3.345-9.531,6.607-13.99,10.326-.481-.121-1.269,1.688-1.467-.231q2.289-15.786,4.575-31.572.851-5.9,1.646-11.8c.1-.718.111-1.341.94-1.693C227.91,458.459,231.057,457.052,234.213,455.668Z" transform="translate(-159.62 -234.853)" fill="#f9f9f9"></path>
    <path id="Path_125" data-name="Path 125" d="M342.063,521.119a35.289,35.289,0,0,0,9.085-.9,5.371,5.371,0,0,0,2.571-1.587,10.713,10.713,0,0,0-1.078-15.717,4.87,4.87,0,0,1-.623-.714c3.017.287,5.809-.934,8.726-1.334.807-.11,1.294-.089,1.629.659q3.334,12.81,6.666,25.619.774,2.97,1.56,5.939c-.181,1.469-1.124.134-1.622.44-2.319-.659-4.647-1.288-6.956-1.981-5.649-1.693-11.543-2.582-16.926-5.149l-2.236-3.079Z" transform="translate(-172.504 -239.526)" fill="#f9f9f9"></path>
    <path id="Path_126" data-name="Path 126" d="M304.978,479.257c.141-1.248,1.17-1.639,2.1-1.98,4.485-1.652,8.761-1.508,12.609,1.692-.642,1.458-2.053,1.571-3.331,1.824a20.522,20.522,0,0,1-8.871-.057C306.526,480.506,305.451,480.358,304.978,479.257Z" transform="translate(-168.666 -236.982)" fill="#777480"></path>
    <path id="Path_127" data-name="Path 127" d="M267.175,387.468c-2.237-1.879-5.006-2.782-7.564-4.054q-23.653-11.765-47.355-23.434a3.637,3.637,0,0,1-1.588-1.03c.167-.6.7-.672,1.175-.866q6.4-2.621,12.784-5.26c7.87-2.7,15.513-5.957,23.155-9.227l1.167-.428.43-.343c3.053-.473,5.677-2.178,8.6-3.023a5.318,5.318,0,0,1,2.024-.414,10.1,10.1,0,0,0,1.559,2.64c2.511,2.409,4.2,5.46,6.281,8.2,7.533,9.923,14.863,20,22.27,30.019.576.78.95,1.734,2.017.256,6.994-9.684,14.113-19.277,21.093-28.971,2.43-3.375,5.11-6.581,7.2-10.2,1.992-2.834,4.047-1.371,6.372-.34,6.349,2.813,12.814,5.365,19.222,8.044,1.822.762,3.612,1.6,5.408,2.422a8.232,8.232,0,0,0,3.458,1.034,70.965,70.965,0,0,0,13.9,5.847c.984,1.374,2.912,1.091,4,2.28-.394.758-1.174.951-1.862,1.276L320.4,385.753c-.344.163-.661.383-.991.576L292.48,399.015l-1.081.265c-4.747-2.78-9.849-4.846-14.739-7.34C273.553,390.355,270.562,388.484,267.175,387.468Z" transform="translate(-158.905 -222.817)" fill="#f77e0b"></path>
    <path id="Path_128" data-name="Path 128" d="M264.114,271.922c1.366,2.381,1.364,5.158,2.215,7.69.4,1.2.639,2.453,1.061,3.672.614-5.235.889-10.482,1.655-15.683.707-4.8.64-4.828,5.089-3.28q10.344,3.6,20.669,7.247a3.709,3.709,0,0,0,2.738-.016c7.913-2.943,15.847-5.828,23.875-8.767a179.8,179.8,0,0,1,2.743,20.656c.792-3.279,1.594-6.557,2.368-9.841a3.309,3.309,0,0,1,.828-1.9c2.785-.007,3.973,1.146,4.214,3.993.38,4.474-.866,8.685-2.022,12.914-1.136,2.22-1.949,4.947-4.39,5.866-2.4.9-2.951,2.579-3.484,4.642a40.889,40.889,0,0,1-3.911,10,4.2,4.2,0,0,0-.523,1.832c-.979.357-1.373,1.28-1.936,2.03a33.455,33.455,0,0,1-13.169,10.944c-2.577,1.143-5.222,2.057-8.168,1.469-6.7-1.335-11.62-5.392-16.078-10.228-1.073-1.165-1.7-2.742-3.217-3.5a4.434,4.434,0,0,0-.338-1.285c-2.672-4.238-4.043-8.962-5.191-13.768-.162-.68-.342-1.219-1.087-1.389-3.2-.728-4.741-3.292-5.808-5.92a27.868,27.868,0,0,1-2.331-13.472C260.316,272.024,261.445,271.673,264.114,271.922Z" transform="translate(-163.99 -214.89)" fill="#dddce4"></path>
    <path id="Path_129" data-name="Path 129" d="M326.3,340.235c-2.1,3.615-4.775,6.821-7.2,10.2-6.98,9.694-14.1,19.287-21.093,28.971-1.067,1.477-1.441.523-2.017-.256-7.407-10.018-14.737-20.1-22.27-30.019-2.079-2.738-3.77-5.789-6.281-8.2-.268-.756.367-1.173.671-1.692,1.9-3.243,3.834-6.468,5.756-9.7l.063.011a.883.883,0,0,1,1.328-.507,1.223,1.223,0,0,0,.223.308l20.371,14.536a1.619,1.619,0,0,0,2.236-.024c1.61-1.271,3.277-2.472,4.926-3.692q7.734-5.718,15.473-11.429c.827.03.938.793,1.263,1.3C321.951,333.423,324.121,336.833,326.3,340.235Z" transform="translate(-164.774 -221.716)" fill="#f9f9f9"></path>
    <path id="Path_130" data-name="Path 130" d="M319.4,327.475,303.927,338.9c-1.65,1.22-3.316,2.421-4.926,3.692a1.619,1.619,0,0,1-2.236.024q-10.173-7.284-20.371-14.536a1.224,1.224,0,0,1-.223-.307c.167-3.513-.2-7.036.2-10.544,1.518.754,2.145,2.332,3.218,3.5,4.458,4.837,9.381,8.893,16.078,10.228,2.946.588,5.591-.326,8.168-1.469A33.455,33.455,0,0,0,317,318.544c.563-.75.957-1.673,1.936-2.03.018,3,.021,5.995.065,8.992C319.011,326.173,318.732,326.928,319.4,327.475Z" transform="translate(-165.684 -220.451)" fill="#acabb6"></path>
    <path id="Path_131" data-name="Path 131" d="M369.063,536.118c.5-.306,1.441,1.029,1.622-.44,1.828,6.912,3.672,13.82,5.479,20.738q6.936,26.568,13.864,53.137c.351,1.338.251,2.787.993,4.026-2.1,4.058-3.47,4.576-7.254,2.743-5.31-3.681-8.807-8.937-12.126-14.278-10.208-16.427-17.143-34.289-22.756-52.711-2.149-7.054-4.312-14.1-5.842-21.329a5.463,5.463,0,0,1-.1-2.1l2.236,3.078c.321,1.629.567,3.277.975,4.883a293.063,293.063,0,0,0,13.088,40c4.945,11.937,10.506,23.564,18.325,33.95,2.041,2.711,4.189,5.384,7.142,7.2.907.559,1.9,1.14,3.051.467,1.087-.635,1.031-1.673,1.014-2.712a11.231,11.231,0,0,0-.31-2.664c-2.675-10.358-5.268-20.739-7.985-31.086C376.72,564.711,372.873,550.42,369.063,536.118Z" transform="translate(-172.589 -242.123)" fill="#403d4e"></path>
    <path id="Path_133" data-name="Path 133" d="M253.8,343.225l-.43.343Z" transform="translate(-163.325 -223.215)" fill="#686675"></path>
    <path id="Path_134" data-name="Path 134" d="M301.935,404.438l26.934-12.685.052,49.13c.006,4.622.038,9.245.057,13.868l.016-.069-.4.345c-6.116,2.081-11.794,4.924-16.484,9.48a.834.834,0,0,1-1.288.112c-2.727-2.033-5.864-3.333-8.864-4.877.016-.641.048-1.281.048-1.922.006-16.552.029-33.1-.028-49.655C301.974,406.928,302.767,405.662,301.935,404.438Z" transform="translate(-168.351 -228.238)" fill="#f77e0b"></path>
    <path id="Path_135" data-name="Path 135" d="M273.644,393.02c3.387,1.016,6.378,2.887,9.492,4.475,4.89,2.493,9.992,4.56,14.739,7.339a1.919,1.919,0,0,0-.44,1.608q.016,26.459.028,52.919a62.11,62.11,0,0,0-8.677-2.482,1.521,1.521,0,0,1-1.365-1.08,16.909,16.909,0,0,0-3.015-4.868c.933-2.206-.758-3.85-1.233-5.754,2.288-3.469,1.182-6.22-2.791-6.96a11.677,11.677,0,0,0-3.776-.335c-1.646-.862-2.344-2.56-3.441-3.908.606-.585.319-1.332.32-2q.032-18.429.028-36.857C273.514,394.418,273.6,393.718,273.644,393.02Z" transform="translate(-165.373 -228.369)" fill="#f77e0b"></path>
    <path id="Path_136" data-name="Path 136" d="M268.027,432.9a22.611,22.611,0,0,1-6.2-1.9,5.523,5.523,0,0,0-1.451-2.417c-5.12-6.971-10.228-13.95-15.433-20.858-.948-1.259-.225-1.661.613-2.186.773-.484,1.385-1.616,2.458-.136,6.432,8.868,12.944,17.677,19.425,26.51C267.662,432.222,267.831,432.572,268.027,432.9Z" transform="translate(-162.406 -229.575)" fill="#f77e0b"></path>
    <path id="Path_137" data-name="Path 137" d="M300.265,460.694q-.013-26.459-.028-52.919a1.919,1.919,0,0,1,.44-1.608l1.081-.264c.833,1.224.04,2.49.045,3.727.057,16.551.034,33.1.028,49.655,0,.641-.031,1.281-.048,1.922Z" transform="translate(-168.175 -229.702)" fill="#100f16"></path>
    <path id="Path_138" data-name="Path 138" d="M275.214,461.55c2.653-.614,3.321-1.409,3.53-4.252.879-.061,1.179.865,1.864,1.1l3.29,4.3c-3.22-.6-6.145-.344-9.051-.529Z" transform="translate(-165.547 -235.021)" fill="#484553"></path>
    <path id="Path_139" data-name="Path 139" d="M274.909,461.946l-.368.618-2.64.059C272.272,459.589,273.895,462.122,274.909,461.946Z" transform="translate(-165.243 -235.417)" fill="#100f16"></path>
    <path id="Path_140" data-name="Path 140" d="M331.673,462.292l.4-.345Z" transform="translate(-171.429 -235.503)" fill="#100f16"></path>
    <path id="Path_141" data-name="Path 141" d="M277,443.055a11.679,11.679,0,0,1,3.776.335c3.972.74,5.079,3.49,2.791,6.96-2.286-.949-3.188-3.3-4.846-4.887C278.057,444.824,277.12,444.175,277,443.055Z" transform="translate(-165.771 -233.542)" fill="#acabb6"></path>
    <path id="Path_142" data-name="Path 142" d="M272.644,450.745l-.488-.125.125-.217.384.322Z" transform="translate(-165.269 -234.308)" fill="#93919d"></path>
    <path id="Path_143" data-name="Path 143" d="M270.053,448.569l-.352-.437a2,2,0,0,1-.011-.358q.253.321.5.644Z" transform="translate(-165.013 -234.036)" fill="#93919d"></path>
    <path id="Path_144" data-name="Path 144" d="M269.644,447.772a1.991,1.991,0,0,0,.011.358l-.373-.382-.034.028Z" transform="translate(-164.968 -234.033)" fill="#686675"></path>
    <path id="Path_145" data-name="Path 145" d="M270.484,449.027l-.388-.383.14-.15.378.395Z" transform="translate(-165.056 -234.11)" fill="#93919d"></path>
    <path id="Path_146" data-name="Path 146" d="M270.659,448.934l.385.391-.13.133-.385-.385Z" transform="translate(-165.101 -234.156)" fill="#93919d"></path>
    <path id="Path_147" data-name="Path 147" d="M271.089,449.37c.116.092.325.165.089.337-.016.011-.143-.133-.219-.2Z" transform="translate(-165.145 -234.201)" fill="#93919d"></path>
    <path id="Path_148" data-name="Path 148" d="M273.147,451.193l.377.4.012-.011-.4-.372Z" transform="translate(-165.37 -234.39)" fill="#93919d"></path>
    <path id="Path_149" data-name="Path 149" d="M273.569,451.633a.539.539,0,0,1,.146.071c.022.02.013.074.018.113l-.152-.194Z" transform="translate(-165.415 -234.434)" fill="#93919d"></path>
    <path id="Path_150" data-name="Path 150" d="M272.721,450.762l.382.386-.013.013-.389-.378Z" transform="translate(-165.325 -234.345)" fill="#93919d"></path>
    <path id="Path_151" data-name="Path 151" d="M266.607,445.2l-.207-.366.408.15Z" transform="translate(-164.673 -233.731)" fill="#686675"></path>
    <path id="Path_152" data-name="Path 152" d="M267.445,446.029l-.391-.386c.083-.076.165-.155.246-.235l.415.361a3.09,3.09,0,0,0-.27.26Z" transform="translate(-164.741 -233.791)" fill="#686675"></path>
    <path id="Path_153" data-name="Path 153" d="M267.886,446.448l-.4-.377a3.078,3.078,0,0,1,.27-.259q.186.195.368.39-.125.117-.238.246Z" transform="translate(-164.786 -233.833)" fill="#686675"></path>
    <path id="Path_154" data-name="Path 154" d="M268.325,446.871l-.393-.378c.076-.085.157-.168.242-.246l.372.39C268.469,446.712,268.4,446.79,268.325,446.871Z" transform="translate(-164.832 -233.878)" fill="#686675"></path>
    <path id="Path_155" data-name="Path 155" d="M268.591,446.682c.1.153.21.306.313.461l-.123.132-.411-.359C268.441,446.835,268.514,446.757,268.591,446.682Z" transform="translate(-164.877 -233.923)" fill="#686675"></path>
    <path id="Path_156" data-name="Path 156" d="M269.239,447.691l-.41-.363.123-.132c.2.117.376.248.253.523Z" transform="translate(-164.925 -233.976)" fill="#686675"></path>
    <path id="Path_157" data-name="Path 157" d="M266.832,445l.423.369c-.08.079-.161.158-.245.234l-.379-.387Z" transform="translate(-164.697 -233.749)" fill="#686675"></path>
    <path id="Path_158" data-name="Path 158" d="M369.328,536.474c3.81,14.3,7.658,28.593,11.418,42.907,2.717,10.347,5.31,20.728,7.985,31.086a11.232,11.232,0,0,1,.31,2.664c.017,1.039.073,2.077-1.014,2.712-1.151.673-2.144.092-3.051-.467-2.952-1.819-5.1-4.492-7.142-7.2-7.819-10.385-13.38-22.013-18.325-33.95a293.072,293.072,0,0,1-13.088-40c-.409-1.606-.654-3.254-.975-4.883,5.383,2.568,11.277,3.456,16.926,5.149C364.681,535.186,367.009,535.815,369.328,536.474Z" transform="translate(-172.854 -242.478)" fill="#999"></path>
    <path id="Path_159" data-name="Path 159" d="M373.376,353.966l-.081.145.077-.149Z" transform="translate(-175.737 -224.326)" fill="#686675"></path>
    <path id="Path_160" data-name="Path 160" d="M397.473,358.678l.082-.145-.081.148Z" transform="translate(-178.239 -224.799)" fill="#777480"></path>
    <path id="Path_161" data-name="Path 161" d="M390.593,361.275l.143.084-.149-.079Z" transform="translate(-177.527 -225.083)" fill="#777480"></path>
    <path id="Path_162" data-name="Path 162" d="M266.5,514.8l23.752,6.046h.8l6.893-1.79,2.621.7L292,522.615q-.025,47.974-.047,95.948H290.41q-.009-47.974.021-95.949l-23.945-5.66q-.031,42.514-.024,85.027c0,5.527.023,11.054.036,16.581H209.8q-.023-8.266-.045-16.533c6.726-6.216,10.568-14.3,14.211-22.435,8.623-19.255,13.633-39.6,17.746-60.2.476-2.386.879-4.788,1.242-7.194l-1.5-.293c-.806,4.149-1.7,9.179-2.53,13.324a307.563,307.563,0,0,1-9.264,35.317c-3.706,11.364-8.158,22.435-14.527,32.624a33.719,33.719,0,0,1-5.655,7.036,8.28,8.28,0,0,1-1.7,1.235c-1.688.9-2.572.39-2.6-1.521a58.858,58.858,0,0,1,.9-8.786c1.2-8.815,2.472-17.62,3.747-26.423,1.176-8.108,2.408-16.207,3.588-24.314,1.134-7.788,2.229-15.582,3.352-23.372a64.515,64.515,0,0,0,1-7.4c4.459-3.719,9.255-6.981,13.99-10.326.288,2.674.567,5.349.868,8.023.118,1.047.492,1.688,1.783,1.773,1.712.114,3.393.753,5.1.844l5.348.956" transform="translate(-158.336 -239.368)" fill="#999"></path>
    <path id="Path_163" data-name="Path 163" d="M300.957,523.329" transform="translate(-168.25 -241.856)" fill="#403d4e"></path>
    <path id="Path_164" data-name="Path 164" d="M310.586,522.111c3.855.09,14.61,1.183,18.465,1.362V621.1H302.067c0-32.005,0-63.921.09-95.925" transform="translate(-168.365 -241.73)" fill="#f77e0b"></path>
    <path id="Path_165" data-name="Path 165" d="M241.067,466.83" transform="translate(-162.051 -236.008)" fill="#403d4e"></path>
    <path id="Path_166" data-name="Path 166" d="M242.73,513.409c-.359,2.421-.807,4.841-1.255,7.172-4.124,20.619-9.144,40.97-17.751,60.245-3.676,8.158-7.441,16.227-14.254,22.413-3.317,2.331-4.841,2.062-6.9-1.614.807-.269.628-.986.717-1.614.448-3.765.9-7.531,1.434-11.206.9-6.544,1.883-13,2.779-19.544,1.076-7.71,2.241-15.42,3.317-23.219,1.165-8.248,2.421-16.585,3.676-24.833.538-3.5.986-7.082,1.524-10.579.179,1.883.986.09,1.434.269a70.483,70.483,0,0,1-.986,7.441c-1.165,7.8-2.241,15.6-3.317,23.4-1.165,8.069-2.421,16.227-3.586,24.3-1.255,8.786-2.51,17.571-3.765,26.447a58.38,58.38,0,0,0-.9,8.786c0,1.883.9,2.421,2.6,1.524a11.923,11.923,0,0,0,1.7-1.255,35.124,35.124,0,0,0,5.648-6.993c6.365-10.22,10.848-21.247,14.523-32.633a300.813,300.813,0,0,0,9.234-35.322c.807-4.124,1.771-9.387,2.577-13.511" transform="translate(-158.066 -240.542)" fill="#403d4e"></path>
    <path id="Path_167" data-name="Path 167" d="M285.474,463.51a62.135,62.135,0,0,1,8.678,2.481l1.518.513c3,1.544,6.137,2.844,8.864,4.877a.835.835,0,0,0,1.289-.112c4.689-4.557,10.368-7.4,16.484-9.48l.4-.345-.016.069c3.114-.346,6.119-1.271,9.238-1.65,3.767-.457,7.543-.509,11.316-.656a78.6,78.6,0,0,0,17.866-2.329,1.962,1.962,0,0,1,2.058.48,21.7,21.7,0,0,0,7.3,4.5c.1.715-.472.621-.877.716-17.592,4.122-35.131,8.47-52.841,12.07-1.589.323-2.441,1.576-3.668,2.345-3.85-3.2-8.125-3.344-12.609-1.692-.928.342-1.957.732-2.1,1.98-5.2-3.645-11.465-2.99-17.252-4.131-13.315-2.628-26.712-4.833-40.075-7.215a2.754,2.754,0,0,1-.533-.216,19.169,19.169,0,0,0,5.736-4.389,1.988,1.988,0,0,1,2.134-.829c6.7,1.457,13.525,1.521,20.336,1.71l2.641-.059c2.906.185,5.831-.073,9.051.529Z" transform="translate(-161.994 -234.967)" fill="#fff"></path>
  </g>
</svg></svg></g></g><defs><clipPath id="SvgjsClipPath1081"><rect width="1000" height="1000" x="0" y="0" rx="350" ry="350"></rect></clipPath></defs></svg></g></svg>